<svg width="20" height="20" viewBox="0 0 20 20" fill="none" xmlns="http://www.w3.org/2000/svg">
<path d="M18.9085 0.00590555L19.0128 0L19.1407 0.00787391L19.2293 0.023622L19.3504 0.0580709L19.4557 0.103346L19.5541 0.159449L19.6427 0.225394L19.7234 0.299212L19.7746 0.357283L19.8553 0.471457L19.9065 0.565945C19.9528 0.66437 19.9823 0.768701 19.9951 0.876968L20 0.981299C20 1.05512 19.9921 1.12795 19.9764 1.19783L19.9419 1.3189L13.5128 19.1112C13.3909 19.3765 13.1955 19.6013 12.9496 19.7589C12.7038 19.9164 12.418 20.0001 12.126 20C11.863 20.0008 11.6043 19.9335 11.3751 19.8047C11.1459 19.6758 10.9539 19.4898 10.8179 19.2648L10.7539 19.1398L7.45472 12.5433L0.889764 9.25984C0.646852 9.14874 0.437365 8.97582 0.282257 8.75835C0.127148 8.54089 0.0318542 8.28652 0.00590555 8.02067L0 7.87401C0 7.32283 0.29626 6.8189 0.827756 6.52559L0.965551 6.45669L18.6988 0.0531495L18.8032 0.023622L18.9085 0.00590555Z" fill="#7EA567"/>
</svg>
