<svg width="10" height="10" viewBox="0 0 10 10" fill="none" xmlns="http://www.w3.org/2000/svg">
<path fill-rule="evenodd" clip-rule="evenodd" d="M4.56617 4.83344C4.56617 4.96604 4.61885 5.09322 4.71262 5.18698C4.80639 5.28075 4.93356 5.33343 5.06617 5.33343C5.19878 5.33343 5.32595 5.28075 5.41972 5.18698C5.51349 5.09322 5.56617 4.96604 5.56617 4.83344V0.50023C5.56617 0.367626 5.51349 0.240452 5.41972 0.146687C5.32595 0.0529211 5.19878 0.000244141 5.06617 0.000244141C4.93356 0.000244141 4.80639 0.0529211 4.71262 0.146687C4.61885 0.240452 4.56617 0.367626 4.56617 0.50023V4.83344ZM7.2595 8.27134C6.86572 8.56565 6.41677 8.77776 5.93936 8.89506C5.46194 9.01237 4.96582 9.03248 4.48047 8.95419C3.99513 8.8759 3.53049 8.70081 3.11418 8.43933C2.69788 8.17786 2.3384 7.83534 2.05713 7.43215C1.77587 7.02895 1.57856 6.57332 1.47694 6.09233C1.37532 5.61135 1.37146 5.11484 1.46559 4.63234C1.55973 4.14983 1.74993 3.69119 2.0249 3.28367C2.29987 2.87615 2.65397 2.52809 3.06617 2.26018C3.12257 2.225 3.17138 2.17893 3.20976 2.12467C3.24814 2.0704 3.27532 2.00903 3.2897 1.94414C3.30408 1.87925 3.30537 1.81214 3.29351 1.74674C3.28165 1.68134 3.25687 1.61896 3.22061 1.56325C3.18436 1.50755 3.13736 1.45962 3.08237 1.42229C3.02738 1.38496 2.96549 1.35897 2.90034 1.34584C2.83518 1.3327 2.76806 1.33269 2.7029 1.3458C2.63773 1.35892 2.57584 1.38489 2.52084 1.4222C1.67757 1.97084 1.03418 2.7773 0.686574 3.72136C0.338971 4.66542 0.305768 5.69653 0.591913 6.66099C0.878058 7.62546 1.46823 8.47163 2.27446 9.07339C3.08068 9.67514 4.05979 10.0002 5.06584 10.0002C6.07188 10.0002 7.05099 9.67514 7.85722 9.07339C8.66344 8.47163 9.25362 7.62546 9.53976 6.66099C9.82591 5.69653 9.7927 4.66542 9.4451 3.72136C9.0975 2.7773 8.45411 1.97084 7.61084 1.4222C7.49977 1.35514 7.36699 1.33387 7.24053 1.36289C7.11407 1.39191 7.00385 1.46895 6.93314 1.57773C6.86244 1.68651 6.83678 1.81852 6.86161 1.94586C6.88643 2.07321 6.95978 2.18592 7.06617 2.26018C7.56115 2.58225 7.97102 3.0191 8.2609 3.53358C8.55079 4.04806 8.71212 4.62494 8.73116 5.21516C8.75021 5.80538 8.62642 6.39146 8.37031 6.92356C8.1142 7.45566 7.73335 7.91803 7.26017 8.27134H7.2595Z" fill="#31C548"/>
</svg>
